<mxfile host="app.diagrams.net" modified="2023-08-30T19:22:21.943Z" agent="Mozilla/5.0 (Windows NT 10.0; Win64; x64) AppleWebKit/537.36 (KHTML, like Gecko) Chrome/116.0.0.0 Safari/537.36" version="21.7.1" etag="E5pbGdB-11xJlcJ6QcdS" type="github">
  <diagram name="Страница — 1" id="Ah3E1LlAO9hvwb6WJRpM">
    <mxGraphModel>
      <root>
        <mxCell id="0" />
        <mxCell id="1" parent="0" />
      </root>
    </mxGraphModel>
  </diagram>
</mxfile>
